<svg width="1001" height="509" viewBox="0 0 1001 509" fill="none" xmlns="http://www.w3.org/2000/svg">
<g opacity="0.29827">
<path d="M1008.08 176.448L443.182 -343.858V-734.19L28.1096 -757C24.9043 -749.456 4.36709 -727.714 7.57176 -715.596C11.43 -701.102 30.8387 -705.735 36.4776 -696.409C43.0661 -685.42 31.7291 -640.749 28.3457 -627.86C21.8759 -603.445 7.09676 -583.665 2.82235 -559.25C-4.35982 -518.263 10.1824 -521.53 37.7242 -495.927C84.141 -452.742 46.9244 -407.952 58.6176 -357.223C68.1146 -315.878 109.605 -294.554 124.8 -253.211C136.553 -221.37 152.697 -213.233 177.746 -189.947C177.153 -204.084 164.51 -245.785 188.253 -242.102C211.817 -238.478 202.736 -203.669 207.247 -189.115C211.045 -176.997 237.933 -152.761 215.616 -141.593C208.196 -137.91 187.066 -152.582 178.577 -156.503C184.572 -137.791 180.774 -118.367 190.271 -100.487C201.608 -79.162 213.835 -87.3588 228.853 -75.7754C244.344 -63.8355 242.683 -50.1137 235.797 -32.0554C228.615 -13.2247 221.196 -16.1352 232.592 6.55658C240.843 22.9512 254.85 43.7421 266.9 56.2164C273.904 63.4634 281.502 65.1267 288.506 74.3932C294.323 82.1155 292.067 92.2142 299.012 99.1638C310.883 111.104 331.006 111.282 340.384 126.904C350.831 144.309 338.96 157.437 369.706 155.833C371.309 190.643 377.897 222.185 377.541 256.994C394.695 263.825 422.414 255.687 440.399 252.063C458.266 276.18 481.355 259.429 501.774 272.558C510.678 278.26 508.837 292.517 514.239 297.506C525.339 307.723 533.529 301.308 547.301 304.872C557.51 307.486 565.404 314.97 575.138 317.703C584.338 320.257 599.475 314.258 606.301 322.396C614.492 332.138 600.78 349.958 613.127 357.799C623.395 364.333 638.115 348.77 648.088 351.027C659.721 353.7 693.079 384.174 701.271 394.212C710.59 405.677 719.969 427.062 725.25 441.793C733.501 464.841 732.373 476.127 749.408 492.998C760.27 503.75 749.942 504.522 767.63 507.67C779.204 509.749 794.518 501.374 806.212 500.067C830.549 497.394 855.122 502.027 879.102 497.453C901.421 493.176 922.729 486.166 945.64 482.899C965.465 480.048 1000.37 482.246 1017.94 472.801C1036.99 462.643 1038.71 439.654 1011.17 443.932C1008.97 429.26 1018.77 409.003 1007.85 398.847C1023.04 378.056 1028.56 363.384 1030.93 337.959C1032 326.792 1032.48 314.436 1038 305.05C1043.4 295.783 1058.59 290.259 1061.56 282.299C1066.13 269.943 1058.83 264.419 1053.25 257.528C1049.69 253.073 1039.54 255.212 1036.63 251.291C1031.23 244.103 1036.57 236.678 1033.6 229.431C1024.94 208.462 1014.61 200.205 1008.08 176.444C1008.26 180.424 1008.44 184.463 1008.2 188.384" stroke="white" stroke-width="2" stroke-linecap="round" stroke-linejoin="round"/>
</g>
<path d="M729.114 96.9394C720.546 120.321 740.614 128.526 756.675 143.807C761.434 148.336 761.888 155.817 756.879 160.342C746.107 170.074 705.264 155.917 707.854 168.745C710.53 181.994 745.061 200.531 746.618 201.799C760.284 212.932 764.735 241.174 757.208 256.658C751.852 267.676 716.342 263.962 705.172 260.293C632.024 236.266 664.985 239.131 582.817 231.67C576.527 231.099 569.935 230.806 563.894 232.65C557.671 234.549 557.869 242.339 559.957 246.55C566.876 260.506 597.849 284.178 589.514 302.523C586.956 308.152 580.963 311.707 578.264 317.27C576.151 321.627 576.385 326.772 575.445 331.523" stroke="white" stroke-width="2"/>
<path fill-rule="evenodd" clip-rule="evenodd" d="M573.5 339C577.09 339 580 336.09 580 332.5C580 328.91 577.09 326 573.5 326C569.91 326 567 328.91 567 332.5C567 336.09 569.91 339 573.5 339Z" fill="#4AF6CD"/>
<path fill-rule="evenodd" clip-rule="evenodd" d="M661 376C662.657 376 664 374.657 664 373C664 371.343 662.657 370 661 370C659.343 370 658 371.343 658 373C658 374.657 659.343 376 661 376Z" fill="#4AF6CD"/>
<path fill-rule="evenodd" clip-rule="evenodd" d="M725 484C726.657 484 728 482.657 728 481C728 479.343 726.657 478 725 478C723.343 478 722 479.343 722 481C722 482.657 723.343 484 725 484Z" fill="#4AF6CD"/>
<path fill-rule="evenodd" clip-rule="evenodd" d="M365 241C366.657 241 368 239.657 368 238C368 236.343 366.657 235 365 235C363.343 235 362 236.343 362 238C362 239.657 363.343 241 365 241Z" fill="#4AF6CD"/>
<path fill-rule="evenodd" clip-rule="evenodd" d="M729.5 104C733.09 104 736 101.09 736 97.5C736 93.9101 733.09 91 729.5 91C725.91 91 723 93.9101 723 97.5C723 101.09 725.91 104 729.5 104Z" fill="#4AF6CD"/>
<path d="M398.41 323.976L396.17 335H394.218L392.186 325.768L390.138 335H388.234L385.994 323.976H387.482L389.258 333.672L391.386 323.976H393.002L395.178 333.672L397.018 323.976H398.41ZM406.544 330.536C406.544 330.781 406.534 331.032 406.512 331.288H401.136C401.2 332.216 401.435 332.899 401.84 333.336C402.246 333.773 402.768 333.992 403.408 333.992C403.814 333.992 404.187 333.933 404.528 333.816C404.87 333.699 405.227 333.512 405.6 333.256L406.24 334.136C405.344 334.84 404.363 335.192 403.296 335.192C402.123 335.192 401.206 334.808 400.544 334.04C399.894 333.272 399.568 332.216 399.568 330.872C399.568 329.997 399.707 329.224 399.984 328.552C400.272 327.869 400.678 327.336 401.2 326.952C401.734 326.568 402.358 326.376 403.072 326.376C404.192 326.376 405.051 326.744 405.648 327.48C406.246 328.216 406.544 329.235 406.544 330.536ZM405.088 330.104C405.088 329.272 404.923 328.637 404.592 328.2C404.262 327.763 403.766 327.544 403.104 327.544C401.899 327.544 401.243 328.429 401.136 330.2H405.088V330.104ZM411.183 326.376C411.759 326.376 412.276 326.456 412.735 326.616C413.194 326.776 413.631 327.016 414.047 327.336L413.423 328.264C413.039 328.019 412.671 327.837 412.319 327.72C411.978 327.603 411.615 327.544 411.231 327.544C410.751 327.544 410.372 327.645 410.095 327.848C409.818 328.04 409.679 328.307 409.679 328.648C409.679 328.989 409.807 329.256 410.063 329.448C410.33 329.64 410.804 329.827 411.487 330.008C412.426 330.243 413.124 330.563 413.583 330.968C414.052 331.373 414.287 331.928 414.287 332.632C414.287 333.464 413.962 334.099 413.311 334.536C412.671 334.973 411.887 335.192 410.959 335.192C409.679 335.192 408.618 334.824 407.775 334.088L408.559 333.192C409.274 333.736 410.063 334.008 410.927 334.008C411.482 334.008 411.919 333.896 412.239 333.672C412.57 333.437 412.735 333.123 412.735 332.728C412.735 332.44 412.676 332.211 412.559 332.04C412.442 331.859 412.239 331.704 411.951 331.576C411.663 331.437 411.242 331.293 410.687 331.144C409.791 330.909 409.14 330.595 408.735 330.2C408.34 329.805 408.143 329.304 408.143 328.696C408.143 328.259 408.271 327.864 408.527 327.512C408.794 327.149 409.156 326.872 409.615 326.68C410.084 326.477 410.607 326.376 411.183 326.376ZM420.62 334.616C420.065 335 419.436 335.192 418.732 335.192C418.017 335.192 417.457 334.989 417.052 334.584C416.657 334.168 416.46 333.571 416.46 332.792V327.704H414.988V326.568H416.46V324.664L417.932 324.488V326.568H419.932L419.772 327.704H417.932V332.728C417.932 333.165 418.006 333.485 418.156 333.688C418.316 333.88 418.577 333.976 418.94 333.976C419.27 333.976 419.644 333.864 420.06 333.64L420.62 334.616ZM429.179 323.784C429.915 323.784 430.545 323.891 431.067 324.104C431.59 324.307 432.097 324.627 432.587 325.064L431.755 325.992C431.339 325.661 430.929 325.421 430.523 325.272C430.129 325.112 429.702 325.032 429.243 325.032C428.667 325.032 428.193 325.165 427.819 325.432C427.446 325.699 427.259 326.088 427.259 326.6C427.259 326.92 427.323 327.192 427.451 327.416C427.579 327.629 427.814 327.827 428.155 328.008C428.507 328.189 429.014 328.381 429.675 328.584C430.369 328.797 430.945 329.027 431.403 329.272C431.862 329.517 432.23 329.859 432.507 330.296C432.795 330.723 432.939 331.267 432.939 331.928C432.939 332.568 432.779 333.133 432.459 333.624C432.15 334.115 431.697 334.499 431.099 334.776C430.513 335.053 429.814 335.192 429.003 335.192C427.478 335.192 426.23 334.717 425.259 333.768L426.091 332.84C426.539 333.203 426.993 333.48 427.451 333.672C427.91 333.853 428.422 333.944 428.987 333.944C429.67 333.944 430.235 333.779 430.683 333.448C431.131 333.107 431.355 332.616 431.355 331.976C431.355 331.613 431.286 331.315 431.147 331.08C431.009 330.835 430.769 330.616 430.427 330.424C430.097 330.232 429.611 330.04 428.971 329.848C427.841 329.507 427.014 329.096 426.491 328.616C425.969 328.136 425.707 327.485 425.707 326.664C425.707 326.109 425.851 325.613 426.139 325.176C426.438 324.739 426.849 324.397 427.371 324.152C427.905 323.907 428.507 323.784 429.179 323.784ZM439.066 326.376C439.834 326.376 440.431 326.605 440.858 327.064C441.295 327.523 441.514 328.152 441.514 328.952V335H440.042V329.16C440.042 328.563 439.925 328.141 439.69 327.896C439.466 327.651 439.135 327.528 438.698 327.528C438.261 327.528 437.871 327.656 437.53 327.912C437.189 328.168 436.869 328.531 436.57 329V335H435.098V323.192L436.57 323.032V327.736C437.231 326.829 438.063 326.376 439.066 326.376ZM447.641 326.376C448.825 326.376 449.742 326.771 450.393 327.56C451.054 328.349 451.385 329.421 451.385 330.776C451.385 331.651 451.236 332.424 450.937 333.096C450.638 333.757 450.206 334.275 449.641 334.648C449.076 335.011 448.404 335.192 447.625 335.192C446.441 335.192 445.518 334.797 444.857 334.008C444.196 333.219 443.865 332.147 443.865 330.792C443.865 329.917 444.014 329.149 444.313 328.488C444.612 327.816 445.044 327.299 445.609 326.936C446.174 326.563 446.852 326.376 447.641 326.376ZM447.641 327.56C446.18 327.56 445.449 328.637 445.449 330.792C445.449 332.936 446.174 334.008 447.625 334.008C449.076 334.008 449.801 332.931 449.801 330.776C449.801 328.632 449.081 327.56 447.641 327.56ZM457.481 326.376C457.78 326.376 458.057 326.408 458.313 326.472L458.041 327.912C457.785 327.848 457.54 327.816 457.305 327.816C456.782 327.816 456.361 328.008 456.041 328.392C455.721 328.776 455.47 329.373 455.289 330.184V335H453.817V326.568H455.081L455.225 328.28C455.449 327.651 455.753 327.176 456.137 326.856C456.521 326.536 456.969 326.376 457.481 326.376ZM465.872 330.536C465.872 330.781 465.862 331.032 465.84 331.288H460.464C460.528 332.216 460.763 332.899 461.168 333.336C461.574 333.773 462.096 333.992 462.736 333.992C463.142 333.992 463.515 333.933 463.856 333.816C464.198 333.699 464.555 333.512 464.928 333.256L465.568 334.136C464.672 334.84 463.691 335.192 462.624 335.192C461.451 335.192 460.534 334.808 459.872 334.04C459.222 333.272 458.896 332.216 458.896 330.872C458.896 329.997 459.035 329.224 459.312 328.552C459.6 327.869 460.006 327.336 460.528 326.952C461.062 326.568 461.686 326.376 462.4 326.376C463.52 326.376 464.379 326.744 464.976 327.48C465.574 328.216 465.872 329.235 465.872 330.536ZM464.416 330.104C464.416 329.272 464.251 328.637 463.92 328.2C463.59 327.763 463.094 327.544 462.432 327.544C461.227 327.544 460.571 328.429 460.464 330.2H464.416V330.104ZM474.41 322.184V336.568H474.058V322.184H474.41ZM493.237 335H491.765L491.381 330.024C491.221 328.072 491.131 326.573 491.109 325.528L488.725 333.752H487.301L484.789 325.512C484.789 326.845 484.72 328.387 484.581 330.136L484.213 335H482.773L483.685 323.976H485.733L488.053 331.992L490.261 323.976H492.325L493.237 335ZM501.434 333.032C501.434 333.373 501.493 333.629 501.61 333.8C501.728 333.96 501.904 334.083 502.138 334.168L501.802 335.192C501.365 335.139 501.013 335.016 500.746 334.824C500.48 334.632 500.282 334.333 500.154 333.928C499.589 334.771 498.752 335.192 497.642 335.192C496.81 335.192 496.154 334.957 495.674 334.488C495.194 334.019 494.954 333.405 494.954 332.648C494.954 331.752 495.274 331.064 495.914 330.584C496.565 330.104 497.482 329.864 498.666 329.864H499.962V329.24C499.962 328.643 499.818 328.216 499.53 327.96C499.242 327.704 498.8 327.576 498.202 327.576C497.584 327.576 496.826 327.725 495.93 328.024L495.562 326.952C496.608 326.568 497.578 326.376 498.474 326.376C499.466 326.376 500.208 326.621 500.698 327.112C501.189 327.592 501.434 328.28 501.434 329.176V333.032ZM497.978 334.088C498.821 334.088 499.482 333.651 499.962 332.776V330.84H498.858C497.301 330.84 496.522 331.416 496.522 332.568C496.522 333.069 496.645 333.448 496.89 333.704C497.136 333.96 497.498 334.088 497.978 334.088ZM505.981 335.192C505.437 335.192 505.005 335.032 504.685 334.712C504.376 334.381 504.221 333.923 504.221 333.336V323.176L505.693 323V333.304C505.693 333.539 505.731 333.709 505.805 333.816C505.891 333.923 506.029 333.976 506.221 333.976C506.424 333.976 506.605 333.944 506.765 333.88L507.149 334.904C506.797 335.096 506.408 335.192 505.981 335.192ZM510.461 326.568V335H508.989V326.568H510.461ZM509.709 322.52C510.018 322.52 510.269 322.616 510.461 322.808C510.653 323 510.749 323.24 510.749 323.528C510.749 323.816 510.653 324.056 510.461 324.248C510.269 324.429 510.018 324.52 509.709 324.52C509.41 324.52 509.165 324.429 508.973 324.248C508.781 324.056 508.685 323.816 508.685 323.528C508.685 323.24 508.781 323 508.973 322.808C509.165 322.616 509.41 322.52 509.709 322.52ZM517.36 326.376C518.32 326.376 519.083 326.765 519.648 327.544C520.214 328.312 520.496 329.389 520.496 330.776C520.496 331.651 520.363 332.424 520.096 333.096C519.83 333.757 519.446 334.275 518.944 334.648C518.443 335.011 517.856 335.192 517.184 335.192C516.299 335.192 515.552 334.819 514.944 334.072L514.8 335H513.504V323.176L514.976 323V327.624C515.584 326.792 516.379 326.376 517.36 326.376ZM516.832 334.024C517.483 334.024 517.99 333.763 518.352 333.24C518.726 332.707 518.912 331.885 518.912 330.776C518.912 329.635 518.742 328.813 518.4 328.312C518.059 327.8 517.574 327.544 516.944 327.544C516.198 327.544 515.542 327.981 514.976 328.856V332.888C515.2 333.24 515.472 333.517 515.792 333.72C516.123 333.923 516.47 334.024 516.832 334.024ZM529.276 335H528.012L527.9 333.688C527.58 334.211 527.212 334.595 526.796 334.84C526.38 335.075 525.874 335.192 525.276 335.192C524.54 335.192 523.964 334.968 523.548 334.52C523.132 334.072 522.924 333.437 522.924 332.616V326.568H524.396V332.456C524.396 333.032 524.498 333.443 524.7 333.688C524.903 333.923 525.234 334.04 525.692 334.04C526.514 334.04 527.218 333.555 527.804 332.584V326.568H529.276V335ZM532.701 332.968C533.021 332.968 533.288 333.075 533.501 333.288C533.714 333.501 533.821 333.763 533.821 334.072C533.821 334.403 533.725 334.781 533.533 335.208L532.461 337.656H531.405L532.045 335C531.906 334.893 531.794 334.76 531.709 334.6C531.634 334.44 531.597 334.264 531.597 334.072C531.597 333.763 531.704 333.501 531.917 333.288C532.13 333.075 532.392 332.968 532.701 332.968ZM544.331 323.784C544.992 323.784 545.547 323.869 545.995 324.04C546.454 324.211 546.918 324.488 547.387 324.872L546.555 325.848C545.883 325.304 545.174 325.032 544.427 325.032C543.51 325.032 542.768 325.384 542.203 326.088C541.648 326.792 541.371 327.923 541.371 329.48C541.371 330.995 541.648 332.115 542.203 332.84C542.758 333.555 543.494 333.912 544.411 333.912C544.88 333.912 545.291 333.832 545.643 333.672C545.995 333.512 546.368 333.288 546.763 333L547.515 333.96C547.174 334.312 546.736 334.605 546.203 334.84C545.67 335.075 545.056 335.192 544.363 335.192C543.467 335.192 542.667 334.973 541.963 334.536C541.27 334.088 540.726 333.437 540.331 332.584C539.947 331.72 539.755 330.685 539.755 329.48C539.755 328.275 539.958 327.245 540.363 326.392C540.768 325.528 541.318 324.877 542.011 324.44C542.704 324.003 543.478 323.784 544.331 323.784ZM555.3 335L554.468 332.232H550.292L549.46 335H547.924L551.46 323.976H553.38L556.9 335H555.3ZM550.66 331H554.1L552.388 325.24L550.66 331Z" fill="white"/>
<path d="M598.378 88.784C599.039 88.784 599.594 88.8693 600.042 89.04C600.501 89.2107 600.965 89.488 601.434 89.872L600.602 90.848C599.93 90.304 599.221 90.032 598.474 90.032C597.557 90.032 596.815 90.384 596.25 91.088C595.695 91.792 595.418 92.9227 595.418 94.48C595.418 95.9947 595.695 97.1147 596.25 97.84C596.805 98.5547 597.541 98.912 598.458 98.912C598.927 98.912 599.338 98.832 599.69 98.672C600.042 98.512 600.415 98.288 600.81 98L601.562 98.96C601.221 99.312 600.783 99.6053 600.25 99.84C599.717 100.075 599.103 100.192 598.41 100.192C597.514 100.192 596.714 99.9733 596.01 99.536C595.317 99.088 594.773 98.4373 594.378 97.584C593.994 96.72 593.802 95.6853 593.802 94.48C593.802 93.2747 594.005 92.2453 594.41 91.392C594.815 90.528 595.365 89.8773 596.058 89.44C596.751 89.0027 597.525 88.784 598.378 88.784ZM609.401 100H608.137L608.025 98.688C607.705 99.2107 607.337 99.5947 606.921 99.84C606.505 100.075 605.999 100.192 605.401 100.192C604.665 100.192 604.089 99.968 603.673 99.52C603.257 99.072 603.049 98.4373 603.049 97.616V91.568H604.521V97.456C604.521 98.032 604.623 98.4427 604.825 98.688C605.028 98.9227 605.359 99.04 605.817 99.04C606.639 99.04 607.343 98.5547 607.929 97.584V91.568H609.401V100ZM616.106 91.376C616.405 91.376 616.682 91.408 616.938 91.472L616.666 92.912C616.41 92.848 616.165 92.816 615.93 92.816C615.407 92.816 614.986 93.008 614.666 93.392C614.346 93.776 614.095 94.3733 613.914 95.184V100H612.442V91.568H613.706L613.85 93.28C614.074 92.6507 614.378 92.176 614.762 91.856C615.146 91.536 615.594 91.376 616.106 91.376ZM622.278 91.376C622.576 91.376 622.854 91.408 623.11 91.472L622.838 92.912C622.582 92.848 622.336 92.816 622.102 92.816C621.579 92.816 621.158 93.008 620.838 93.392C620.518 93.776 620.267 94.3733 620.086 95.184V100H618.614V91.568H619.878L620.022 93.28C620.246 92.6507 620.55 92.176 620.934 91.856C621.318 91.536 621.766 91.376 622.278 91.376ZM630.669 95.536C630.669 95.7813 630.659 96.032 630.637 96.288H625.261C625.325 97.216 625.56 97.8987 625.965 98.336C626.371 98.7733 626.893 98.992 627.533 98.992C627.939 98.992 628.312 98.9333 628.653 98.816C628.995 98.6987 629.352 98.512 629.725 98.256L630.365 99.136C629.469 99.84 628.488 100.192 627.421 100.192C626.248 100.192 625.331 99.808 624.669 99.04C624.019 98.272 623.693 97.216 623.693 95.872C623.693 94.9973 623.832 94.224 624.109 93.552C624.397 92.8693 624.803 92.336 625.325 91.952C625.859 91.568 626.483 91.376 627.197 91.376C628.317 91.376 629.176 91.744 629.773 92.48C630.371 93.216 630.669 94.2347 630.669 95.536ZM629.213 95.104C629.213 94.272 629.048 93.6373 628.717 93.2C628.387 92.7627 627.891 92.544 627.229 92.544C626.024 92.544 625.368 93.4293 625.261 95.2H629.213V95.104ZM636.988 91.376C637.756 91.376 638.353 91.6053 638.78 92.064C639.217 92.5227 639.436 93.152 639.436 93.952V100H637.964V94.16C637.964 93.5627 637.852 93.1413 637.628 92.896C637.404 92.6507 637.073 92.528 636.636 92.528C636.188 92.528 635.793 92.656 635.452 92.912C635.111 93.168 634.791 93.536 634.492 94.016V100H633.02V91.568H634.284L634.412 92.816C634.711 92.368 635.079 92.016 635.516 91.76C635.964 91.504 636.455 91.376 636.988 91.376ZM646.651 99.616C646.096 100 645.467 100.192 644.763 100.192C644.048 100.192 643.488 99.9893 643.083 99.584C642.688 99.168 642.491 98.5707 642.491 97.792V92.704H641.019V91.568H642.491V89.664L643.963 89.488V91.568H645.963L645.803 92.704H643.963V97.728C643.963 98.1653 644.038 98.4853 644.187 98.688C644.347 98.88 644.608 98.976 644.971 98.976C645.302 98.976 645.675 98.864 646.091 98.64L646.651 99.616ZM654.011 88.976V98.672H658.539L658.363 100H652.491V88.976H654.011ZM663.141 91.376C664.325 91.376 665.242 91.7707 665.893 92.56C666.554 93.3493 666.885 94.4213 666.885 95.776C666.885 96.6507 666.736 97.424 666.437 98.096C666.138 98.7573 665.706 99.2747 665.141 99.648C664.576 100.011 663.904 100.192 663.125 100.192C661.941 100.192 661.018 99.7973 660.357 99.008C659.696 98.2187 659.365 97.1467 659.365 95.792C659.365 94.9173 659.514 94.1493 659.813 93.488C660.112 92.816 660.544 92.2987 661.109 91.936C661.674 91.5627 662.352 91.376 663.141 91.376ZM663.141 92.56C661.68 92.56 660.949 93.6373 660.949 95.792C660.949 97.936 661.674 99.008 663.125 99.008C664.576 99.008 665.301 97.9307 665.301 95.776C665.301 93.632 664.581 92.56 663.141 92.56ZM672.389 91.376C672.89 91.376 673.349 91.4507 673.765 91.6C674.181 91.7387 674.581 91.968 674.965 92.288L674.261 93.216C673.962 93.0027 673.669 92.848 673.381 92.752C673.104 92.6453 672.794 92.592 672.453 92.592C671.77 92.592 671.237 92.864 670.853 93.408C670.48 93.952 670.293 94.7573 670.293 95.824C670.293 96.8907 670.48 97.68 670.853 98.192C671.226 98.6933 671.76 98.944 672.453 98.944C672.784 98.944 673.088 98.896 673.365 98.8C673.642 98.6933 673.952 98.528 674.293 98.304L674.965 99.264C674.197 99.8827 673.338 100.192 672.389 100.192C671.248 100.192 670.346 99.808 669.685 99.04C669.034 98.272 668.709 97.2107 668.709 95.856C668.709 94.96 668.858 94.176 669.157 93.504C669.456 92.832 669.877 92.3093 670.421 91.936C670.976 91.5627 671.632 91.376 672.389 91.376ZM682.481 98.032C682.481 98.3733 682.54 98.6293 682.657 98.8C682.775 98.96 682.951 99.0827 683.185 99.168L682.849 100.192C682.412 100.139 682.06 100.016 681.793 99.824C681.527 99.632 681.329 99.3333 681.201 98.928C680.636 99.7707 679.799 100.192 678.689 100.192C677.857 100.192 677.201 99.9573 676.721 99.488C676.241 99.0187 676.001 98.4053 676.001 97.648C676.001 96.752 676.321 96.064 676.961 95.584C677.612 95.104 678.529 94.864 679.713 94.864H681.009V94.24C681.009 93.6427 680.865 93.216 680.577 92.96C680.289 92.704 679.847 92.576 679.249 92.576C678.631 92.576 677.873 92.7253 676.977 93.024L676.609 91.952C677.655 91.568 678.625 91.376 679.521 91.376C680.513 91.376 681.255 91.6213 681.745 92.112C682.236 92.592 682.481 93.28 682.481 94.176V98.032ZM679.025 99.088C679.868 99.088 680.529 98.6507 681.009 97.776V95.84H679.905C678.348 95.84 677.569 96.416 677.569 97.568C677.569 98.0693 677.692 98.448 677.937 98.704C678.183 98.96 678.545 99.088 679.025 99.088ZM689.76 99.616C689.206 100 688.576 100.192 687.872 100.192C687.158 100.192 686.598 99.9893 686.192 99.584C685.798 99.168 685.6 98.5707 685.6 97.792V92.704H684.128V91.568H685.6V89.664L687.072 89.488V91.568H689.072L688.912 92.704H687.072V97.728C687.072 98.1653 687.147 98.4853 687.296 98.688C687.456 98.88 687.718 98.976 688.08 98.976C688.411 98.976 688.784 98.864 689.2 98.64L689.76 99.616ZM692.758 91.568V100H691.286V91.568H692.758ZM692.006 87.52C692.315 87.52 692.566 87.616 692.758 87.808C692.95 88 693.046 88.24 693.046 88.528C693.046 88.816 692.95 89.056 692.758 89.248C692.566 89.4293 692.315 89.52 692.006 89.52C691.707 89.52 691.462 89.4293 691.27 89.248C691.078 89.056 690.982 88.816 690.982 88.528C690.982 88.24 691.078 88 691.27 87.808C691.462 87.616 691.707 87.52 692.006 87.52ZM698.969 91.376C700.153 91.376 701.071 91.7707 701.721 92.56C702.383 93.3493 702.713 94.4213 702.713 95.776C702.713 96.6507 702.564 97.424 702.265 98.096C701.967 98.7573 701.535 99.2747 700.969 99.648C700.404 100.011 699.732 100.192 698.953 100.192C697.769 100.192 696.847 99.7973 696.185 99.008C695.524 98.2187 695.193 97.1467 695.193 95.792C695.193 94.9173 695.343 94.1493 695.641 93.488C695.94 92.816 696.372 92.2987 696.937 91.936C697.503 91.5627 698.18 91.376 698.969 91.376ZM698.969 92.56C697.508 92.56 696.777 93.6373 696.777 95.792C696.777 97.936 697.503 99.008 698.953 99.008C700.404 99.008 701.129 97.9307 701.129 95.776C701.129 93.632 700.409 92.56 698.969 92.56ZM709.113 91.376C709.881 91.376 710.478 91.6053 710.905 92.064C711.342 92.5227 711.561 93.152 711.561 93.952V100H710.089V94.16C710.089 93.5627 709.977 93.1413 709.753 92.896C709.529 92.6507 709.198 92.528 708.761 92.528C708.313 92.528 707.918 92.656 707.577 92.912C707.236 93.168 706.916 93.536 706.617 94.016V100H705.145V91.568H706.409L706.537 92.816C706.836 92.368 707.204 92.016 707.641 91.76C708.089 91.504 708.58 91.376 709.113 91.376Z" fill="white"/>
</svg>
