<svg width="28" height="34" viewBox="0 0 28 34" fill="none" xmlns="http://www.w3.org/2000/svg">
<path d="M18.5316 12.3635H0.40625V15.454H18.5316C21.6549 15.454 24.1953 11.9868 24.1953 7.727C24.1953 3.46588 21.6539 0 18.5316 0C15.4083 0 12.8679 3.46725 12.8679 7.727H15.1332C15.1332 5.17114 16.6582 3.0905 18.5316 3.0905C20.405 3.0905 21.9301 5.17114 21.9301 7.727C21.9301 10.2829 20.405 12.3635 18.5316 12.3635Z" fill="#4AF6CD"/>
<path d="M21.9301 18.5459H0.40625V21.6364H21.9301C23.8035 21.6364 25.3285 23.717 25.3285 26.2729C25.3285 28.8288 23.8035 30.9094 21.9301 30.9094C20.0567 30.9094 18.5316 28.8288 18.5316 26.2729H16.2664C16.2664 30.534 18.8078 33.9999 21.9301 33.9999C25.0534 33.9999 27.5938 30.5327 27.5938 26.2729C27.5938 22.0118 25.0524 18.5459 21.9301 18.5459Z" fill="#4AF6CD"/>
</svg>
